<?xml version="1.0" encoding="utf-8"?>
<!-- Svg Vector Icons : http://www.onlinewebfonts.com/icon -->
<!DOCTYPE svg PUBLIC "-//W3C//DTD SVG 1.1//EN" "http://www.w3.org/Graphics/SVG/1.1/DTD/svg11.dtd">
<svg version="1.1" xmlns="http://www.w3.org/2000/svg" xmlns:xlink="http://www.w3.org/1999/xlink" x="0px" y="0px" viewBox="0 0 1000 1000" enable-background="new 0 0 1000 1000" xml:space="preserve">
<metadata> Svg Vector Icons : http://www.onlinewebfonts.com/icon </metadata>
<g><g transform="translate(0.000000,512.000000) scale(0.100000,-0.100000)"><path d="M1431.5,4993C817.5,4862.5,337.9,4421.3,153.7,3813.1c-48-157.3-53.7-199.5-53.7-470c0-270.5,5.8-312.7,53.7-470c59.5-197.6,165-404.8,287.8-564c94-120.9,268.6-289.7,358.8-341.5c30.7-17.3,55.6-38.4,55.6-44.1s-34.5-111.3-74.8-234.1C704.3,1461,629.5,1154,583.5,877.7c-15.3-97.9-24.9-320.4-24.9-613.9c1.9-391.4,7.7-496.9,46-706c195.7-1112.8,729-2027.9,1600.1-2743.5c101.7-84.4,186.1-157.3,186.1-163.1c0-7.7-163.1-228.3-362.6-493.1c-199.5-262.8-372.2-498.8-383.7-521.8c-59.5-115.1-5.8-285.8,118.9-378c72.9-53.7,249.4-55.6,324.2-5.8c26.9,19.2,220.6,260.9,429.8,537.2c207.2,276.3,385.6,510.3,393.3,519.9c7.7,9.6,117-28.8,241.7-84.4c282-126.6,663.8-251.3,922.8-305.1c942-193.8,1932-84.4,2766.5,307c109.3,51.8,211,90.2,224.5,86.3c11.5-5.8,189.9-234,395.2-506.5c205.3-272.4,397.1-516.1,425.9-537.2c161.2-126.6,410.6-40.3,470,165c44.1,145.8,44.1,147.7-721.4,1166.5l-44.1,57.6l145.8,113.2c347.2,266.7,719.5,673.4,984.2,1076.3c750.2,1137.7,928.6,2568.9,481.6,3865.9l-72.9,209.1l71,46c209.1,138.1,443.2,420.2,558.3,673.4c113.2,251.3,142,393.3,140.1,709.9c-1.9,255.2-7.7,307-53.7,460.4c-308.9,1020.7-1433.1,1508-2380.9,1034.1c-180.4-90.2-397.1-259-514.2-401c-53.7-63.3-107.4-113.2-117-111.3c-11.5,1.9-122.8,44.1-249.4,92.1c-518,201.4-986.1,285.9-1584.7,285.9c-644.6,0-1153-97.9-1694.1-326.2l-155.4-65.2l-57.6,72.9C2697.7,4889.4,2043.5,5125.4,1431.5,4993z M2126,4354.1c157.3-57.6,287.8-138.1,395.2-249.4l82.5-84.4l-132.4-86.3c-193.8-128.5-447-345.3-660-564c-232.1-237.9-347.2-379.9-535.3-665.7l-149.6-226.4l-111.3,111.3c-333.8,333.8-406.7,834.6-182.3,1260.5c136.2,259,414.4,475.8,700.3,541C1703.9,4428.9,1964.8,4413.6,2126,4354.1z M8470.6,4388.6c567.9-134.3,932.4-723.3,798.1-1291.2c-49.9-207.2-201.4-458.5-343.4-567.9l-63.3-48l-94,147.7c-318.5,502.7-754,963.1-1222.1,1289.3l-147.7,103.6l71,74.8c138.2,145.8,383.7,274.4,581.3,307C8159.8,4423.2,8355.5,4415.5,8470.6,4388.6z M5594.7,4062.5c1419.7-237.9,2567-1202.9,3031.3-2551.7c385.6-1120.4,222.5-2363.6-439.4-3359.4c-1245.1-1874.4-3819.8-2275.4-5584.9-871c-184.2,147.7-504.6,470-635,642.7C1068.9-902.7,909.6,641.7,1554.3,1952.1c209.1,427.8,437.4,742.5,780.8,1074.4c322.3,310.8,606.3,510.3,999.6,700.3c387.5,186.1,767.4,299.3,1204.8,356.9C4792.8,4116.2,5343.4,4104.7,5594.7,4062.5z"/><path d="M4846.5,2999.6c-36.5-19.2-86.3-69.1-109.4-109.4l-44.1-74.8V1501.2c0-1239.4,1.9-1318,34.5-1371.8c49.9-78.7,1525.2-1527.2,1602-1569.4c167-94,402.9,32.6,429.8,230.2c21.1,159.2,9.6,172.7-742.5,911.3l-707.9,694.5l-5.8,1222.1c-5.7,1206.8-5.7,1224-46,1277.7C5155.4,3032.2,4986.5,3076.4,4846.5,2999.6z"/></g></g>
</svg>