<?xml version="1.0" encoding="utf-8"?>
<!-- Svg Vector Icons : http://www.onlinewebfonts.com/icon -->
<!DOCTYPE svg PUBLIC "-//W3C//DTD SVG 1.1//EN" "http://www.w3.org/Graphics/SVG/1.1/DTD/svg11.dtd">
<svg version="1.1" xmlns="http://www.w3.org/2000/svg" xmlns:xlink="http://www.w3.org/1999/xlink" x="0px" y="0px" viewBox="0 0 1000 1000" enable-background="new 0 0 1000 1000" xml:space="preserve">
<metadata> Svg Vector Icons : http://www.onlinewebfonts.com/icon </metadata>
<g><g transform="translate(0.000000,511.000000) scale(0.100000,-0.100000)"><path d="M893.1,4166.3c-365.5-88-675.5-399.9-761.6-759.7c-42.1-179.9-42.1-3142,0-3323.8c88-367.4,392.3-671.6,759.7-759.7c181.8-42.1,8038.6-42.1,8220.4,0c367.4,88,671.7,392.3,759.7,759.7c22.9,101.4,28.7,369.3,28.7,1660.9c0,1697.3,1.9,1672.4-118.7,1902c-78.5,149.2-279.4,350.2-428.6,428.6c-241.1,126.3,47.9,118.6-4360.9,116.7C1832.7,4189.2,971.6,4185.4,893.1,4166.3z M9115.5,3731.9c153.1-70.8,239.2-155,310-300.4l63.1-128.2l5.7-979.7l5.7-981.6H5001.4H502.8l5.7,981.6l5.7,979.7l49.8,105.2c26.8,59.3,76.5,137.8,109.1,174.1c70.8,80.4,222,166.5,333,187.5c45.9,9.6,1863.7,15.3,4043.2,13.4l3960.9-1.9L9115.5,3731.9z M9494.3,551.7l-5.7-367.4l-63.1-128.2c-70.8-145.4-156.9-229.6-310-300.4l-105.3-49.8H5001.4H992.6l-114.8,53.6C749.6-179.3,675-118,608-10.9c-80.4,124.4-103.3,260.2-103.3,610.4V921h4498.6H9502L9494.3,551.7z"/><path d="M1023.3,492.4c-111-61.2-132-227.7-42.1-319.6l55.5-55.5h2740.1h2740.1l55.5,55.5c89.9,91.8,68.9,262.1-42.1,319.6C6453.8,530.6,1094.1,532.5,1023.3,492.4z"/><path d="M7146.5,492.4c-111-61.2-132-227.7-42.1-319.6l55.5-55.5h290.9h290.8l55.5,55.5c89.9,91.8,70.8,248.8-40.2,313.8C7688,528.7,7219.2,532.5,7146.5,492.4z"/><path d="M8371.1,492.4c-111-61.2-132-227.7-42.1-319.6l55.5-55.5h290.9h290.9l55.5,55.5c89.9,91.8,70.8,248.8-40.2,313.8C8912.6,528.7,8443.8,532.5,8371.1,492.4z"/><path d="M1662.4-1124.5c-65.1-26.8-200.9-189.5-248.8-294.7c-133.9-292.8-101.4-576,135.9-1188.3c135.9-348.2,179.9-509,179.9-658.2c0-139.7-32.5-227.7-128.2-344.4c-89.9-109.1-93.8-208.6-15.3-290.9c111-116.7,239.2-88,369.3,82.3c151.2,195.2,208.6,426.7,174.1,692.7c-17.2,143.5-49.8,244.9-296.6,947.2c-122.5,350.2-114.8,535.8,30.6,700.4c70.8,82.3,86.1,139.7,57.4,227.7C1886.3-1147.5,1758-1084.4,1662.4-1124.5z"/><path d="M3288.8-1124.5c-63.1-26.8-200.9-189.5-248.8-294.7c-133.9-292.8-101.4-576,135.9-1180.6c133.9-346.3,179.9-516.6,179.9-665.9c0-139.7-32.5-227.7-126.3-342.5c-55.5-67-68.9-99.5-68.9-162.7c1.9-164.6,191.3-254.5,323.4-156.9c28.7,23,88,91.9,130.1,153.1c208.6,302.3,200.9,642.9-21,1224.6c-162.6,424.8-200.9,549.2-212.4,698.5c-13.4,166.4,11.5,258.3,89.9,348.2c67,78.5,95.7,133.9,95.7,185.6c0,70.8-57.4,155-124.4,183.7C3369.2-1103.5,3344.3-1103.5,3288.8-1124.5z"/><path d="M4915.3-1124.5c-63.1-26.8-200.9-189.5-248.8-294.7c-133.9-292.8-101.4-576,135.9-1188.3c135.9-348.2,179.9-509,179.9-658.2c0-139.7-32.5-227.7-128.2-344.4c-88-109.1-93.8-208.6-15.3-290.9c130.1-135.8,275.6-76.5,438.2,177.9c93.8,149.3,132,371.2,105.2,595.1c-17.2,147.3-42.1,225.8-296.6,949.1c-122.5,350.2-114.8,535.8,28.7,698.4c30.6,36.3,61.2,89.9,68.9,120.5C5215.7-1208.7,5056.9-1069.1,4915.3-1124.5z"/><path d="M7571.3-1136c-111-47.8-120.5-89.9-120.5-593.2c0-246.8-3.8-449.7-7.7-449.7c-5.7,0-183.7,101.4-398,223.9c-445.8,258.3-493.7,271.7-591.3,162.6c-67-74.6-74.6-183.7-17.2-256.4c19.1-26.8,204.7-145.4,411.4-264.1c204.7-118.6,373.1-222,373.1-229.6c0-9.6-168.4-112.9-373.1-229.6c-206.7-118.6-390.4-237.3-411.4-264.1c-57.4-72.7-49.7-179.9,17.2-256.4c97.6-109.1,145.4-95.7,591.3,162.6c214.3,122.5,392.3,223.9,398,223.9c3.8,0,7.7-204.7,7.7-453.5c0-415.2,3.8-461.2,36.3-514.7c72.7-120.6,237.3-126.3,327.2-11.5c36.4,44,38.3,78.5,38.3,514.7c0,388.4,3.8,466.9,26.8,459.2c13.4-5.7,193.2-107.2,396.1-225.8c396.1-229.6,457.3-250.7,558.8-183.7c72.7,45.9,101.4,158.8,65.1,244.9c-23,57.4-76.5,95.7-422.9,294.7c-216.2,126.3-394.2,233.5-394.2,239.2c0,5.7,177.9,112.9,394.2,239.2c344.4,199,399.9,239.2,422.9,296.6c36.3,84.2,5.7,197.1-65.1,243c-101.4,67-162.7,47.8-554.9-181.8c-202.8-118.7-380.8-220.1-398-225.8c-24.9-9.6-28.7,44-28.7,455.4c0,509-1.9,522.4-114.8,579.8C7670.8-1101.6,7649.7-1101.6,7571.3-1136z"/></g></g>
</svg>