<?xml version='1.0' encoding='iso-8859-1'?>
<svg version="1.1" xmlns="http://www.w3.org/2000/svg" viewBox="0 0 301.041 301.041" xmlns:xlink="http://www.w3.org/1999/xlink" enable-background="new 0 0 301.041 301.041">
  <g>
    <g>
      <path d="m253.187,127.029h-163.571v-48.724c1.42109e-14-33.062 27.842-60.904 60.904-60.904s60.904,27.842 60.904,60.904c0,5.22 3.48,8.701 8.701,8.701s8.701-3.48 8.701-8.701c0-43.503-34.803-78.305-78.306-78.305s-78.305,34.802-78.305,78.305v48.723h-24.362c-15.661,0-27.842,12.181-27.842,27.842v118.328c0,15.661 12.181,27.842 27.842,27.842h205.334c15.661,0 27.842-12.181 27.842-27.842v-118.327c0-15.661-12.18-27.842-27.842-27.842zm10.441,146.17c0,5.22-5.22,10.441-10.441,10.441h-205.334c-5.22,0-10.441-5.22-10.441-10.441v-118.328c0-5.22 5.22-10.441 10.441-10.441h205.334c5.22,0 10.441,5.22 10.441,10.441v118.328z"/>
      <path d="m159.221,218.629v-25.476c0-5.22-3.48-8.701-8.701-8.701-5.22,0-8.701,3.48-8.701,8.701v25.475c-1.183,0.731-2.436,1.322-3.48,2.366-3.48,3.48-5.22,6.96-5.22,12.181 0,5.22 1.74,8.701 5.22,12.181 3.48,3.48 6.96,5.22 12.181,5.22 5.22,0 8.701-1.74 12.181-5.22 3.48-3.48 5.22-6.96 5.22-12.181 0-5.22-1.74-8.701-5.22-12.181-1.044-1.043-2.297-1.635-3.48-2.365z"/>
    </g>
  </g>
</svg>
